<svg width="56" height="56" viewBox="0 0 56 56" fill="none" xmlns="http://www.w3.org/2000/svg">
<path d="M44.3333 46.6667C44.3333 49.2567 42.2566 51.3333 39.6666 51.3333C37.0766 51.3333 35 49.2333 35 46.6667C35 44.0767 37.0766 42 39.6666 42C42.2566 42 44.3333 44.1 44.3333 46.6667ZM16.3333 42C13.7433 42 11.6666 44.0767 11.6666 46.6667C11.6666 49.2333 13.7433 51.3333 16.3333 51.3333C18.9233 51.3333 21 49.2567 21 46.6667C21 44.0767 18.9233 42 16.3333 42ZM16.8 34.1367L16.73 34.4167C16.73 34.7433 16.9866 35 17.3133 35H44.3333V39.6667H16.3333C13.7433 39.6667 11.6666 37.5667 11.6666 35C11.6666 34.1833 11.8766 33.4133 12.2266 32.76L15.4 27.0433L6.99998 9.33334H2.33331V4.66667H9.96331L12.1566 9.33334H46.6666C47.95 9.33334 49 10.3833 49 11.6667C49 12.0633 48.8833 12.46 48.72 12.8333L40.3666 27.93C39.5733 29.3533 38.0333 30.3333 36.2833 30.3333H18.9L16.8 34.1367ZM19.8333 25.6667H23.3333V21H17.64L19.8333 25.6667ZM25.6666 21V25.6667H32.6666V21H25.6666ZM32.6666 18.6667V14H25.6666V18.6667H32.6666ZM39.9233 21H35V25.6667H37.3333L39.9233 21ZM43.82 14H35V18.6667H41.23L43.82 14ZM14.3266 14L16.52 18.6667H23.3333V14H14.3266Z" fill="#1E1E1E"/>
</svg>
