<svg width="42" height="49" viewBox="0 0 42 49" fill="none" xmlns="http://www.w3.org/2000/svg">
<path d="M21 14.6667C22.8565 14.6667 24.637 13.9292 25.9497 12.6164C27.2625 11.3037 28 9.52319 28 7.66667C28 5.81016 27.2625 4.02968 25.9497 2.71692C24.637 1.40417 22.8565 0.666672 21 0.666672C19.1435 0.666672 17.363 1.40417 16.0503 2.71692C14.7375 4.02968 14 5.81016 14 7.66667C14 9.52319 14.7375 11.3037 16.0503 12.6164C17.363 13.9292 19.1435 14.6667 21 14.6667ZM21 22.9267C15.4933 17.8167 8.16667 14.6667 0 14.6667V40.3333C8.16667 40.3333 15.4933 43.4833 21 48.5933C26.5067 43.4833 33.8333 40.3333 42 40.3333V14.6667C33.8333 14.6667 26.5067 17.8167 21 22.9267Z" fill="black"/>
</svg>
