<svg width="48" height="48" viewBox="0 0 48 48" fill="none" xmlns="http://www.w3.org/2000/svg">
<path d="M24 40.8C18.1667 40.8 13.01 37.8133 9.99999 33.3333C10.07 28.6667 19.3333 26.1 24 26.1C28.6667 26.1 37.93 28.6667 38 33.3333C34.99 37.8133 29.8333 40.8 24 40.8ZM24 7.66667C25.8565 7.66667 27.637 8.40417 28.9497 9.71692C30.2625 11.0297 31 12.8102 31 14.6667C31 16.5232 30.2625 18.3037 28.9497 19.6164C27.637 20.9292 25.8565 21.6667 24 21.6667C22.1435 21.6667 20.363 20.9292 19.0502 19.6164C17.7375 18.3037 17 16.5232 17 14.6667C17 12.8102 17.7375 11.0297 19.0502 9.71692C20.363 8.40417 22.1435 7.66667 24 7.66667ZM24 0.666672C20.9358 0.666672 17.9016 1.27021 15.0707 2.44282C12.2398 3.61543 9.66753 5.33415 7.50083 7.50085C3.12498 11.8767 0.666656 17.8116 0.666656 24C0.666656 30.1884 3.12498 36.1233 7.50083 40.4992C9.66753 42.6659 12.2398 44.3846 15.0707 45.5572C17.9016 46.7298 20.9358 47.3333 24 47.3333C30.1884 47.3333 36.1233 44.875 40.4991 40.4992C44.875 36.1233 47.3333 30.1884 47.3333 24C47.3333 11.0967 36.8333 0.666672 24 0.666672Z" fill="#1E1E1E"/>
</svg>
